# xmcd
#
# Track frame offsets: 
#        187
#        22785
#        43840
#        68487
#        90362
#        112400
#        132452
#        152247
#        178235
#        196805
#
# Disc length: 2904 seconds
#
# Revision: 1
# Processed by: cddbd v1.5.2PL0 Copyright (c) Steve Scherf et al.
# Submitted via: ExactAudioCopyFreeDBPlugin 1.0
#
DISCID=840b560a
DTITLE=Various Artist - Em Sap Ve Chua
DYEAR=1900
DGENRE=Country
TTITLE0=Giao Linh - La vang khoc la xanh
TTITLE1=Tuan Vu - Mua hoa anh dao
TTITLE2=Giao Linh - Noi buon hoa phuong
TTITLE3=Tuan Vu - Giao Linh - Gio cuon may troi
TTITLE4=Giao Linh - Cho toi song lai
TTITLE5=Giao Linh - Hoa cai mai toc
TTITLE6=Tuan Vu - Xin goi nhau la co nhan
TTITLE7=Giao Linh - Quan con me
TTITLE8=Tuan Vu - Giao Linh - Neu dung giang do
TTITLE9=Giao Linh - Em sap ve chua
EXTD=
EXTT0=
EXTT1=
EXTT2=
EXTT3=
EXTT4=
EXTT5=
EXTT6=
EXTT7=
EXTT8=
EXTT9=
PLAYORDER=
